<mxfile host="app.diagrams.net" modified="2022-05-05T03:46:28.167Z" agent="5.0 (Macintosh; Intel Mac OS X 10_15_7) AppleWebKit/537.36 (KHTML, like Gecko) Chrome/100.0.4896.127 Safari/537.36" etag="CnwvhHb0IiZjK9B5OQBc" version="17.5.1" type="github">
  <diagram id="kgpKYQtTHZ0yAKxKKP6v" name="Page-1">
    <mxGraphModel dx="1261" dy="708" grid="1" gridSize="10" guides="1" tooltips="1" connect="1" arrows="1" fold="1" page="1" pageScale="1" pageWidth="850" pageHeight="1100" math="0" shadow="0">
      <root>
        <mxCell id="0" />
        <mxCell id="1" parent="0" />
        <mxCell id="zaYzNi-4dWmYHtka3ur4-102" value="alt" style="shape=umlFrame;whiteSpace=wrap;html=1;" vertex="1" parent="1">
          <mxGeometry x="30" y="360" width="550" height="160" as="geometry" />
        </mxCell>
        <mxCell id="zaYzNi-4dWmYHtka3ur4-78" value="" style="endArrow=classic;html=1;rounded=0;entryX=1.029;entryY=0.212;entryDx=0;entryDy=0;entryPerimeter=0;" edge="1" parent="1" target="zaYzNi-4dWmYHtka3ur4-70" source="zaYzNi-4dWmYHtka3ur4-73">
          <mxGeometry width="50" height="50" relative="1" as="geometry">
            <mxPoint x="542.5" y="820" as="sourcePoint" />
            <mxPoint x="367.5" y="820" as="targetPoint" />
            <Array as="points">
              <mxPoint x="502.5" y="820" />
              <mxPoint x="452.5" y="820" />
            </Array>
          </mxGeometry>
        </mxCell>
        <mxCell id="zaYzNi-4dWmYHtka3ur4-91" value="alt" style="shape=umlFrame;whiteSpace=wrap;html=1;" vertex="1" parent="1">
          <mxGeometry x="30" y="890" width="600" height="180" as="geometry" />
        </mxCell>
        <mxCell id="zaYzNi-4dWmYHtka3ur4-90" value="" style="verticalAlign=bottom;endArrow=block;shadow=0;strokeWidth=1;" edge="1" parent="1" source="zaYzNi-4dWmYHtka3ur4-65">
          <mxGeometry relative="1" as="geometry">
            <mxPoint x="160.49" y="840" as="sourcePoint" />
            <mxPoint x="360" y="840" as="targetPoint" />
            <Array as="points">
              <mxPoint x="345" y="840.2" />
            </Array>
          </mxGeometry>
        </mxCell>
        <mxCell id="zaYzNi-4dWmYHtka3ur4-68" value="" style="endArrow=classic;html=1;rounded=0;entryX=1.046;entryY=0.334;entryDx=0;entryDy=0;entryPerimeter=0;" edge="1" parent="1" target="zaYzNi-4dWmYHtka3ur4-66" source="zaYzNi-4dWmYHtka3ur4-69">
          <mxGeometry width="50" height="50" relative="1" as="geometry">
            <mxPoint x="347.5" y="830" as="sourcePoint" />
            <mxPoint x="160" y="830" as="targetPoint" />
            <Array as="points">
              <mxPoint x="307.5" y="830" />
              <mxPoint x="257.5" y="830" />
            </Array>
          </mxGeometry>
        </mxCell>
        <mxCell id="zaYzNi-4dWmYHtka3ur4-2" value="Admin" style="shape=umlLifeline;perimeter=lifelinePerimeter;container=1;collapsible=0;recursiveResize=0;rounded=0;shadow=0;strokeWidth=1;" vertex="1" parent="1">
          <mxGeometry x="100" y="90" width="100" height="420" as="geometry" />
        </mxCell>
        <mxCell id="zaYzNi-4dWmYHtka3ur4-3" value="" style="points=[];perimeter=orthogonalPerimeter;rounded=0;shadow=0;strokeWidth=1;" vertex="1" parent="zaYzNi-4dWmYHtka3ur4-2">
          <mxGeometry x="45" y="70" width="10" height="190" as="geometry" />
        </mxCell>
        <mxCell id="zaYzNi-4dWmYHtka3ur4-19" value="" style="endArrow=classic;html=1;rounded=0;entryX=1.075;entryY=0.739;entryDx=0;entryDy=0;entryPerimeter=0;" edge="1" parent="zaYzNi-4dWmYHtka3ur4-2" target="zaYzNi-4dWmYHtka3ur4-3">
          <mxGeometry width="50" height="50" relative="1" as="geometry">
            <mxPoint x="255" y="210.16000000000003" as="sourcePoint" />
            <mxPoint x="61" y="210" as="targetPoint" />
            <Array as="points">
              <mxPoint x="215" y="210.16000000000003" />
              <mxPoint x="165" y="210.16000000000003" />
            </Array>
          </mxGeometry>
        </mxCell>
        <mxCell id="zaYzNi-4dWmYHtka3ur4-25" value="" style="endArrow=classic;html=1;rounded=0;entryX=1.028;entryY=0.263;entryDx=0;entryDy=0;entryPerimeter=0;" edge="1" parent="zaYzNi-4dWmYHtka3ur4-2" target="zaYzNi-4dWmYHtka3ur4-3">
          <mxGeometry width="50" height="50" relative="1" as="geometry">
            <mxPoint x="257.5" y="120" as="sourcePoint" />
            <mxPoint x="70" y="120" as="targetPoint" />
            <Array as="points">
              <mxPoint x="217.5" y="120" />
              <mxPoint x="167.5" y="120" />
            </Array>
          </mxGeometry>
        </mxCell>
        <mxCell id="zaYzNi-4dWmYHtka3ur4-105" value="" style="points=[];perimeter=orthogonalPerimeter;rounded=0;shadow=0;strokeWidth=1;" vertex="1" parent="zaYzNi-4dWmYHtka3ur4-2">
          <mxGeometry x="45" y="290" width="10" height="50" as="geometry" />
        </mxCell>
        <mxCell id="zaYzNi-4dWmYHtka3ur4-114" value="" style="points=[];perimeter=orthogonalPerimeter;rounded=0;shadow=0;strokeWidth=1;" vertex="1" parent="zaYzNi-4dWmYHtka3ur4-2">
          <mxGeometry x="45" y="360" width="10" height="50" as="geometry" />
        </mxCell>
        <mxCell id="zaYzNi-4dWmYHtka3ur4-4" value="CU Food Order&#xa;Web App" style="shape=umlLifeline;perimeter=lifelinePerimeter;container=1;collapsible=0;recursiveResize=0;rounded=0;shadow=0;strokeWidth=1;" vertex="1" parent="1">
          <mxGeometry x="310" y="90" width="100" height="420" as="geometry" />
        </mxCell>
        <mxCell id="zaYzNi-4dWmYHtka3ur4-5" value="" style="points=[];perimeter=orthogonalPerimeter;rounded=0;shadow=0;strokeWidth=1;" vertex="1" parent="zaYzNi-4dWmYHtka3ur4-4">
          <mxGeometry x="45" y="80" width="10" height="190" as="geometry" />
        </mxCell>
        <mxCell id="zaYzNi-4dWmYHtka3ur4-23" value="" style="verticalAlign=bottom;endArrow=block;entryX=0;entryY=0;shadow=0;strokeWidth=1;" edge="1" parent="zaYzNi-4dWmYHtka3ur4-4">
          <mxGeometry relative="1" as="geometry">
            <mxPoint x="55" y="100.00000000000011" as="sourcePoint" />
            <mxPoint x="225" y="100.00000000000011" as="targetPoint" />
          </mxGeometry>
        </mxCell>
        <mxCell id="zaYzNi-4dWmYHtka3ur4-108" value="" style="points=[];perimeter=orthogonalPerimeter;rounded=0;shadow=0;strokeWidth=1;" vertex="1" parent="zaYzNi-4dWmYHtka3ur4-4">
          <mxGeometry x="45" y="290" width="10" height="50" as="geometry" />
        </mxCell>
        <mxCell id="zaYzNi-4dWmYHtka3ur4-109" value="check input format" style="verticalAlign=bottom;endArrow=block;shadow=0;strokeWidth=1;exitX=1.005;exitY=0.582;exitDx=0;exitDy=0;exitPerimeter=0;" edge="1" parent="zaYzNi-4dWmYHtka3ur4-4">
          <mxGeometry x="0.217" y="40" relative="1" as="geometry">
            <mxPoint x="55.05000000000018" y="230.19999999999982" as="sourcePoint" />
            <mxPoint x="55" y="256.0000000000002" as="targetPoint" />
            <Array as="points">
              <mxPoint x="88" y="230" />
              <mxPoint x="88" y="256" />
            </Array>
            <mxPoint as="offset" />
          </mxGeometry>
        </mxCell>
        <mxCell id="zaYzNi-4dWmYHtka3ur4-115" value="" style="verticalAlign=bottom;endArrow=none;shadow=0;strokeWidth=1;startArrow=block;startFill=1;endFill=0;exitX=1.042;exitY=0.585;exitDx=0;exitDy=0;exitPerimeter=0;" edge="1" parent="zaYzNi-4dWmYHtka3ur4-4">
          <mxGeometry relative="1" as="geometry">
            <mxPoint x="-154.58000000000015" y="390" as="sourcePoint" />
            <mxPoint x="45" y="390" as="targetPoint" />
          </mxGeometry>
        </mxCell>
        <mxCell id="zaYzNi-4dWmYHtka3ur4-116" value="" style="points=[];perimeter=orthogonalPerimeter;rounded=0;shadow=0;strokeWidth=1;" vertex="1" parent="zaYzNi-4dWmYHtka3ur4-4">
          <mxGeometry x="45" y="360" width="10" height="50" as="geometry" />
        </mxCell>
        <mxCell id="zaYzNi-4dWmYHtka3ur4-8" value="" style="verticalAlign=bottom;endArrow=block;entryX=0;entryY=0;shadow=0;strokeWidth=1;" edge="1" parent="1" source="zaYzNi-4dWmYHtka3ur4-3" target="zaYzNi-4dWmYHtka3ur4-5">
          <mxGeometry relative="1" as="geometry">
            <mxPoint x="285" y="170" as="sourcePoint" />
          </mxGeometry>
        </mxCell>
        <mxCell id="zaYzNi-4dWmYHtka3ur4-9" value="User database" style="shape=umlLifeline;perimeter=lifelinePerimeter;container=1;collapsible=0;recursiveResize=0;rounded=0;shadow=0;strokeWidth=1;" vertex="1" parent="1">
          <mxGeometry x="490" y="90" width="100" height="420" as="geometry" />
        </mxCell>
        <mxCell id="zaYzNi-4dWmYHtka3ur4-10" value="" style="points=[];perimeter=orthogonalPerimeter;rounded=0;shadow=0;strokeWidth=1;" vertex="1" parent="zaYzNi-4dWmYHtka3ur4-9">
          <mxGeometry x="45" y="80" width="10" height="200" as="geometry" />
        </mxCell>
        <mxCell id="zaYzNi-4dWmYHtka3ur4-110" value="" style="points=[];perimeter=orthogonalPerimeter;rounded=0;shadow=0;strokeWidth=1;" vertex="1" parent="zaYzNi-4dWmYHtka3ur4-9">
          <mxGeometry x="45" y="290" width="10" height="30" as="geometry" />
        </mxCell>
        <mxCell id="zaYzNi-4dWmYHtka3ur4-12" value="click to view user overview page" style="text;html=1;align=center;verticalAlign=middle;resizable=0;points=[];autosize=1;strokeColor=none;fillColor=none;" vertex="1" parent="1">
          <mxGeometry x="155" y="150" width="190" height="20" as="geometry" />
        </mxCell>
        <mxCell id="zaYzNi-4dWmYHtka3ur4-13" value="request user data" style="text;html=1;align=center;verticalAlign=middle;resizable=0;points=[];autosize=1;strokeColor=none;fillColor=none;" vertex="1" parent="1">
          <mxGeometry x="395" y="170" width="110" height="20" as="geometry" />
        </mxCell>
        <mxCell id="zaYzNi-4dWmYHtka3ur4-11" value="" style="endArrow=classic;html=1;rounded=0;entryX=1.037;entryY=0.16;entryDx=0;entryDy=0;entryPerimeter=0;" edge="1" parent="1" target="zaYzNi-4dWmYHtka3ur4-5">
          <mxGeometry width="50" height="50" relative="1" as="geometry">
            <mxPoint x="537.5" y="200" as="sourcePoint" />
            <mxPoint x="362.5" y="200" as="targetPoint" />
            <Array as="points">
              <mxPoint x="497.5" y="200" />
              <mxPoint x="447.5" y="200" />
            </Array>
          </mxGeometry>
        </mxCell>
        <mxCell id="zaYzNi-4dWmYHtka3ur4-24" value="user data" style="text;html=1;align=center;verticalAlign=middle;resizable=0;points=[];autosize=1;strokeColor=none;fillColor=none;" vertex="1" parent="1">
          <mxGeometry x="415" y="200" width="70" height="20" as="geometry" />
        </mxCell>
        <mxCell id="zaYzNi-4dWmYHtka3ur4-26" value="Display user data in a table" style="text;html=1;align=center;verticalAlign=middle;resizable=0;points=[];autosize=1;strokeColor=none;fillColor=none;" vertex="1" parent="1">
          <mxGeometry x="170" y="190" width="160" height="20" as="geometry" />
        </mxCell>
        <mxCell id="zaYzNi-4dWmYHtka3ur4-28" value="Click to edit a user&#39;s data" style="text;html=1;align=center;verticalAlign=middle;resizable=0;points=[];autosize=1;strokeColor=none;fillColor=none;" vertex="1" parent="1">
          <mxGeometry x="175" y="220" width="150" height="20" as="geometry" />
        </mxCell>
        <mxCell id="zaYzNi-4dWmYHtka3ur4-30" value="Display form to edit user data" style="text;html=1;align=center;verticalAlign=middle;resizable=0;points=[];autosize=1;strokeColor=none;fillColor=none;" vertex="1" parent="1">
          <mxGeometry x="165" y="280" width="170" height="20" as="geometry" />
        </mxCell>
        <mxCell id="zaYzNi-4dWmYHtka3ur4-32" value="Enter form" style="text;html=1;align=center;verticalAlign=middle;resizable=0;points=[];autosize=1;strokeColor=none;fillColor=none;" vertex="1" parent="1">
          <mxGeometry x="215" y="310" width="70" height="20" as="geometry" />
        </mxCell>
        <mxCell id="zaYzNi-4dWmYHtka3ur4-33" value="Update user data" style="text;html=1;align=center;verticalAlign=middle;resizable=0;points=[];autosize=1;strokeColor=none;fillColor=none;" vertex="1" parent="1">
          <mxGeometry x="390" y="370" width="110" height="20" as="geometry" />
        </mxCell>
        <mxCell id="zaYzNi-4dWmYHtka3ur4-34" value="Confirm update" style="text;html=1;align=center;verticalAlign=middle;resizable=0;points=[];autosize=1;strokeColor=none;fillColor=none;" vertex="1" parent="1">
          <mxGeometry x="395" y="400" width="100" height="20" as="geometry" />
        </mxCell>
        <mxCell id="zaYzNi-4dWmYHtka3ur4-36" value="(POST method)" style="text;html=1;align=center;verticalAlign=middle;resizable=0;points=[];autosize=1;strokeColor=none;fillColor=none;" vertex="1" parent="1">
          <mxGeometry x="200" y="330" width="100" height="20" as="geometry" />
        </mxCell>
        <mxCell id="zaYzNi-4dWmYHtka3ur4-31" value="" style="verticalAlign=bottom;endArrow=block;shadow=0;strokeWidth=1;exitX=1.049;exitY=0.42;exitDx=0;exitDy=0;exitPerimeter=0;entryX=-0.068;entryY=0.736;entryDx=0;entryDy=0;entryPerimeter=0;" edge="1" parent="1" target="zaYzNi-4dWmYHtka3ur4-5">
          <mxGeometry relative="1" as="geometry">
            <mxPoint x="155" y="310" as="sourcePoint" />
            <mxPoint x="349.51" y="310" as="targetPoint" />
            <Array as="points">
              <mxPoint x="339.51" y="310.2" />
            </Array>
          </mxGeometry>
        </mxCell>
        <mxCell id="zaYzNi-4dWmYHtka3ur4-64" value="(GET method)" style="text;html=1;align=center;verticalAlign=middle;resizable=0;points=[];autosize=1;strokeColor=none;fillColor=none;" vertex="1" parent="1">
          <mxGeometry x="205" y="240" width="90" height="20" as="geometry" />
        </mxCell>
        <mxCell id="zaYzNi-4dWmYHtka3ur4-29" value="" style="verticalAlign=bottom;endArrow=block;shadow=0;strokeWidth=1;exitX=1.049;exitY=0.42;exitDx=0;exitDy=0;exitPerimeter=0;entryX=-0.012;entryY=0.263;entryDx=0;entryDy=0;entryPerimeter=0;" edge="1" parent="1" target="zaYzNi-4dWmYHtka3ur4-5">
          <mxGeometry relative="1" as="geometry">
            <mxPoint x="155.49" y="220" as="sourcePoint" />
            <mxPoint x="350" y="220" as="targetPoint" />
            <Array as="points">
              <mxPoint x="340" y="220.2" />
            </Array>
          </mxGeometry>
        </mxCell>
        <mxCell id="zaYzNi-4dWmYHtka3ur4-65" value="Admin" style="shape=umlLifeline;perimeter=lifelinePerimeter;container=1;collapsible=0;recursiveResize=0;rounded=0;shadow=0;strokeWidth=1;" vertex="1" parent="1">
          <mxGeometry x="90" y="710" width="100" height="340" as="geometry" />
        </mxCell>
        <mxCell id="zaYzNi-4dWmYHtka3ur4-66" value="" style="points=[];perimeter=orthogonalPerimeter;rounded=0;shadow=0;strokeWidth=1;" vertex="1" parent="zaYzNi-4dWmYHtka3ur4-65">
          <mxGeometry x="45" y="70" width="10" height="150" as="geometry" />
        </mxCell>
        <mxCell id="zaYzNi-4dWmYHtka3ur4-93" value="" style="endArrow=none;dashed=1;html=1;rounded=0;fontSize=12;exitX=-0.001;exitY=0.664;exitDx=0;exitDy=0;exitPerimeter=0;entryX=0.998;entryY=0.44;entryDx=0;entryDy=0;entryPerimeter=0;" edge="1" parent="zaYzNi-4dWmYHtka3ur4-65" target="zaYzNi-4dWmYHtka3ur4-91">
          <mxGeometry width="50" height="50" relative="1" as="geometry">
            <mxPoint x="-59.999000000000045" y="260" as="sourcePoint" />
            <mxPoint x="510" y="260" as="targetPoint" />
          </mxGeometry>
        </mxCell>
        <mxCell id="zaYzNi-4dWmYHtka3ur4-95" value="" style="points=[];perimeter=orthogonalPerimeter;rounded=0;shadow=0;strokeWidth=1;" vertex="1" parent="zaYzNi-4dWmYHtka3ur4-65">
          <mxGeometry x="45" y="280" width="10" height="30" as="geometry" />
        </mxCell>
        <mxCell id="zaYzNi-4dWmYHtka3ur4-69" value="CU Food Order&#xa;Web App" style="shape=umlLifeline;perimeter=lifelinePerimeter;container=1;collapsible=0;recursiveResize=0;rounded=0;shadow=0;strokeWidth=1;" vertex="1" parent="1">
          <mxGeometry x="315" y="710" width="100" height="340" as="geometry" />
        </mxCell>
        <mxCell id="zaYzNi-4dWmYHtka3ur4-70" value="" style="points=[];perimeter=orthogonalPerimeter;rounded=0;shadow=0;strokeWidth=1;" vertex="1" parent="zaYzNi-4dWmYHtka3ur4-69">
          <mxGeometry x="45" y="80" width="10" height="140" as="geometry" />
        </mxCell>
        <mxCell id="zaYzNi-4dWmYHtka3ur4-71" value="" style="verticalAlign=bottom;endArrow=block;shadow=0;strokeWidth=1;entryX=-0.083;entryY=0.144;entryDx=0;entryDy=0;entryPerimeter=0;" edge="1" parent="zaYzNi-4dWmYHtka3ur4-69" target="zaYzNi-4dWmYHtka3ur4-74">
          <mxGeometry relative="1" as="geometry">
            <mxPoint x="55" y="100.00000000000011" as="sourcePoint" />
            <mxPoint x="225" y="100.00000000000011" as="targetPoint" />
          </mxGeometry>
        </mxCell>
        <mxCell id="zaYzNi-4dWmYHtka3ur4-98" value="" style="points=[];perimeter=orthogonalPerimeter;rounded=0;shadow=0;strokeWidth=1;" vertex="1" parent="zaYzNi-4dWmYHtka3ur4-69">
          <mxGeometry x="45" y="280" width="10" height="30" as="geometry" />
        </mxCell>
        <mxCell id="zaYzNi-4dWmYHtka3ur4-72" value="" style="verticalAlign=bottom;endArrow=block;entryX=0;entryY=0;shadow=0;strokeWidth=1;" edge="1" parent="1" source="zaYzNi-4dWmYHtka3ur4-66" target="zaYzNi-4dWmYHtka3ur4-70">
          <mxGeometry relative="1" as="geometry">
            <mxPoint x="290" y="790" as="sourcePoint" />
          </mxGeometry>
        </mxCell>
        <mxCell id="zaYzNi-4dWmYHtka3ur4-73" value="Comment database" style="shape=umlLifeline;perimeter=lifelinePerimeter;container=1;collapsible=0;recursiveResize=0;rounded=0;shadow=0;strokeWidth=1;" vertex="1" parent="1">
          <mxGeometry x="540" y="710" width="115" height="340" as="geometry" />
        </mxCell>
        <mxCell id="zaYzNi-4dWmYHtka3ur4-74" value="" style="points=[];perimeter=orthogonalPerimeter;rounded=0;shadow=0;strokeWidth=1;" vertex="1" parent="zaYzNi-4dWmYHtka3ur4-73">
          <mxGeometry x="52.5" y="80" width="10" height="140" as="geometry" />
        </mxCell>
        <mxCell id="zaYzNi-4dWmYHtka3ur4-85" value="send comment id to delete comment" style="text;html=1;align=center;verticalAlign=middle;resizable=0;points=[];autosize=1;strokeColor=none;fillColor=none;" vertex="1" parent="zaYzNi-4dWmYHtka3ur4-73">
          <mxGeometry x="-157.5" y="140" width="210" height="20" as="geometry" />
        </mxCell>
        <mxCell id="zaYzNi-4dWmYHtka3ur4-77" value="" style="verticalAlign=bottom;endArrow=none;shadow=0;strokeWidth=1;startArrow=block;startFill=1;endFill=0;exitX=1.046;exitY=0.786;exitDx=0;exitDy=0;exitPerimeter=0;" edge="1" parent="zaYzNi-4dWmYHtka3ur4-73" source="zaYzNi-4dWmYHtka3ur4-70">
          <mxGeometry relative="1" as="geometry">
            <mxPoint x="-127.5" y="190.00000000000023" as="sourcePoint" />
            <mxPoint x="52.5" y="190" as="targetPoint" />
          </mxGeometry>
        </mxCell>
        <mxCell id="zaYzNi-4dWmYHtka3ur4-97" value="" style="points=[];perimeter=orthogonalPerimeter;rounded=0;shadow=0;strokeWidth=1;" vertex="1" parent="zaYzNi-4dWmYHtka3ur4-73">
          <mxGeometry x="52.5" y="270" width="10" height="30" as="geometry" />
        </mxCell>
        <mxCell id="zaYzNi-4dWmYHtka3ur4-75" value="click to view comment overview page" style="text;html=1;align=center;verticalAlign=middle;resizable=0;points=[];autosize=1;strokeColor=none;fillColor=none;" vertex="1" parent="1">
          <mxGeometry x="150" y="770" width="210" height="20" as="geometry" />
        </mxCell>
        <mxCell id="zaYzNi-4dWmYHtka3ur4-76" value="request comment data" style="text;html=1;align=center;verticalAlign=middle;resizable=0;points=[];autosize=1;strokeColor=none;fillColor=none;" vertex="1" parent="1">
          <mxGeometry x="415" y="790" width="140" height="20" as="geometry" />
        </mxCell>
        <mxCell id="zaYzNi-4dWmYHtka3ur4-79" value="comment data" style="text;html=1;align=center;verticalAlign=middle;resizable=0;points=[];autosize=1;strokeColor=none;fillColor=none;" vertex="1" parent="1">
          <mxGeometry x="440" y="820" width="90" height="20" as="geometry" />
        </mxCell>
        <mxCell id="zaYzNi-4dWmYHtka3ur4-80" value="Display comment data in a table" style="text;html=1;align=center;verticalAlign=middle;resizable=0;points=[];autosize=1;strokeColor=none;fillColor=none;" vertex="1" parent="1">
          <mxGeometry x="160" y="810" width="190" height="20" as="geometry" />
        </mxCell>
        <mxCell id="zaYzNi-4dWmYHtka3ur4-81" value="Click to delete a comment data" style="text;html=1;align=center;verticalAlign=middle;resizable=0;points=[];autosize=1;strokeColor=none;fillColor=none;" vertex="1" parent="1">
          <mxGeometry x="165" y="840" width="180" height="20" as="geometry" />
        </mxCell>
        <mxCell id="zaYzNi-4dWmYHtka3ur4-82" value="Display updated table" style="text;html=1;align=center;verticalAlign=middle;resizable=0;points=[];autosize=1;strokeColor=none;fillColor=none;" vertex="1" parent="1">
          <mxGeometry x="175" y="910" width="130" height="20" as="geometry" />
        </mxCell>
        <mxCell id="zaYzNi-4dWmYHtka3ur4-84" value="" style="verticalAlign=bottom;endArrow=block;shadow=0;strokeWidth=1;entryX=-0.038;entryY=0.572;entryDx=0;entryDy=0;entryPerimeter=0;" edge="1" parent="1" target="zaYzNi-4dWmYHtka3ur4-74">
          <mxGeometry relative="1" as="geometry">
            <mxPoint x="370" y="870" as="sourcePoint" />
            <mxPoint x="550" y="870" as="targetPoint" />
          </mxGeometry>
        </mxCell>
        <mxCell id="zaYzNi-4dWmYHtka3ur4-86" value="confirm delete" style="text;html=1;align=center;verticalAlign=middle;resizable=0;points=[];autosize=1;strokeColor=none;fillColor=none;" vertex="1" parent="1">
          <mxGeometry x="440" y="900" width="90" height="20" as="geometry" />
        </mxCell>
        <mxCell id="zaYzNi-4dWmYHtka3ur4-67" value="" style="endArrow=classic;html=1;rounded=0;entryX=0.983;entryY=0.866;entryDx=0;entryDy=0;entryPerimeter=0;" edge="1" parent="1" target="zaYzNi-4dWmYHtka3ur4-66">
          <mxGeometry width="50" height="50" relative="1" as="geometry">
            <mxPoint x="360" y="909.69" as="sourcePoint" />
            <mxPoint x="170" y="909.69" as="targetPoint" />
            <Array as="points">
              <mxPoint x="320" y="909.8500000000001" />
              <mxPoint x="270" y="909.8500000000001" />
            </Array>
          </mxGeometry>
        </mxCell>
        <mxCell id="zaYzNi-4dWmYHtka3ur4-92" value="&lt;font style=&quot;font-size: 12px&quot;&gt;[If the comment &lt;br&gt;is valid]&lt;/font&gt;" style="strokeWidth=1;shadow=0;dashed=0;align=center;html=1;shape=mxgraph.mockup.text.textBox;fontColor=#666666;align=left;fontSize=17;spacingLeft=4;spacingTop=-3;strokeColor=#FFFFFF;mainText=" vertex="1" parent="1">
          <mxGeometry x="40" y="930" width="76" height="30" as="geometry" />
        </mxCell>
        <mxCell id="zaYzNi-4dWmYHtka3ur4-94" value="&lt;font style=&quot;font-size: 12px&quot;&gt;[else&lt;br&gt;comment &lt;br&gt;is not in database]&lt;/font&gt;" style="strokeWidth=1;shadow=0;dashed=0;align=center;html=1;shape=mxgraph.mockup.text.textBox;fontColor=#666666;align=left;fontSize=17;spacingLeft=4;spacingTop=-3;strokeColor=#FFFFFF;mainText=" vertex="1" parent="1">
          <mxGeometry x="40" y="1010" width="66" height="30" as="geometry" />
        </mxCell>
        <mxCell id="zaYzNi-4dWmYHtka3ur4-96" value="" style="verticalAlign=bottom;endArrow=none;shadow=0;strokeWidth=1;startArrow=block;startFill=1;endFill=0;exitX=1.046;exitY=0.786;exitDx=0;exitDy=0;exitPerimeter=0;" edge="1" parent="1">
          <mxGeometry relative="1" as="geometry">
            <mxPoint x="370.00000000000006" y="994.66" as="sourcePoint" />
            <mxPoint x="592.04" y="994.62" as="targetPoint" />
          </mxGeometry>
        </mxCell>
        <mxCell id="zaYzNi-4dWmYHtka3ur4-99" value="cannot find comment" style="text;html=1;align=center;verticalAlign=middle;resizable=0;points=[];autosize=1;strokeColor=none;fillColor=none;" vertex="1" parent="1">
          <mxGeometry x="420" y="970" width="130" height="20" as="geometry" />
        </mxCell>
        <mxCell id="zaYzNi-4dWmYHtka3ur4-100" value="" style="endArrow=classic;html=1;rounded=0;entryX=0.983;entryY=0.866;entryDx=0;entryDy=0;entryPerimeter=0;" edge="1" parent="1">
          <mxGeometry width="50" height="50" relative="1" as="geometry">
            <mxPoint x="360" y="1009.5600000000002" as="sourcePoint" />
            <mxPoint x="144.83000000000004" y="1009.77" as="targetPoint" />
            <Array as="points">
              <mxPoint x="320" y="1009.7200000000003" />
              <mxPoint x="270" y="1009.7200000000003" />
            </Array>
          </mxGeometry>
        </mxCell>
        <mxCell id="zaYzNi-4dWmYHtka3ur4-101" value="Display &quot;comment has been &lt;br&gt;deleted by other admin&quot;" style="text;html=1;align=center;verticalAlign=middle;resizable=0;points=[];autosize=1;strokeColor=none;fillColor=none;" vertex="1" parent="1">
          <mxGeometry x="175" y="1010" width="160" height="30" as="geometry" />
        </mxCell>
        <mxCell id="zaYzNi-4dWmYHtka3ur4-21" value="" style="verticalAlign=bottom;endArrow=none;entryX=0;entryY=0;shadow=0;strokeWidth=1;startArrow=block;startFill=1;endFill=0;" edge="1" parent="1">
          <mxGeometry relative="1" as="geometry">
            <mxPoint x="365" y="400.00000000000017" as="sourcePoint" />
            <mxPoint x="535" y="400.00000000000017" as="targetPoint" />
          </mxGeometry>
        </mxCell>
        <mxCell id="zaYzNi-4dWmYHtka3ur4-104" value="&lt;font style=&quot;font-size: 12px&quot;&gt;[If the correct&lt;br&gt;input format]&lt;/font&gt;" style="strokeWidth=1;shadow=0;dashed=0;align=center;html=1;shape=mxgraph.mockup.text.textBox;fontColor=#666666;align=left;fontSize=17;spacingLeft=4;spacingTop=-3;strokeColor=#FFFFFF;mainText=" vertex="1" parent="1">
          <mxGeometry x="40" y="400" width="76" height="30" as="geometry" />
        </mxCell>
        <mxCell id="zaYzNi-4dWmYHtka3ur4-1" value="" style="verticalAlign=bottom;endArrow=block;shadow=0;strokeWidth=1;entryX=-0.087;entryY=0.329;entryDx=0;entryDy=0;entryPerimeter=0;" edge="1" parent="1" target="zaYzNi-4dWmYHtka3ur4-110">
          <mxGeometry relative="1" as="geometry">
            <mxPoint x="365" y="390" as="sourcePoint" />
            <mxPoint x="525" y="390" as="targetPoint" />
          </mxGeometry>
        </mxCell>
        <mxCell id="zaYzNi-4dWmYHtka3ur4-106" value="" style="verticalAlign=bottom;endArrow=none;shadow=0;strokeWidth=1;startArrow=block;startFill=1;endFill=0;exitX=1.042;exitY=0.585;exitDx=0;exitDy=0;exitPerimeter=0;" edge="1" parent="1" source="zaYzNi-4dWmYHtka3ur4-105" target="zaYzNi-4dWmYHtka3ur4-108">
          <mxGeometry relative="1" as="geometry">
            <mxPoint x="170" y="410.0000000000002" as="sourcePoint" />
            <mxPoint x="340" y="410.0000000000002" as="targetPoint" />
          </mxGeometry>
        </mxCell>
        <mxCell id="zaYzNi-4dWmYHtka3ur4-111" value="Display updated table" style="text;html=1;align=center;verticalAlign=middle;resizable=0;points=[];autosize=1;strokeColor=none;fillColor=none;" vertex="1" parent="1">
          <mxGeometry x="185" y="390" width="130" height="20" as="geometry" />
        </mxCell>
        <mxCell id="zaYzNi-4dWmYHtka3ur4-112" value="" style="endArrow=none;dashed=1;html=1;rounded=0;fontSize=12;exitX=-0.001;exitY=0.664;exitDx=0;exitDy=0;exitPerimeter=0;" edge="1" parent="1">
          <mxGeometry width="50" height="50" relative="1" as="geometry">
            <mxPoint x="30.600999999999978" y="440.79999999999995" as="sourcePoint" />
            <mxPoint x="580" y="440" as="targetPoint" />
          </mxGeometry>
        </mxCell>
        <mxCell id="zaYzNi-4dWmYHtka3ur4-113" value="&lt;span style=&quot;font-size: 12px&quot;&gt;[else]&lt;/span&gt;" style="strokeWidth=1;shadow=0;dashed=0;align=center;html=1;shape=mxgraph.mockup.text.textBox;fontColor=#666666;align=left;fontSize=17;spacingLeft=4;spacingTop=-3;strokeColor=#FFFFFF;mainText=" vertex="1" parent="1">
          <mxGeometry x="40" y="450" width="76" height="30" as="geometry" />
        </mxCell>
        <mxCell id="zaYzNi-4dWmYHtka3ur4-117" value="Display &quot;incorrect input format&quot;" style="text;html=1;align=center;verticalAlign=middle;resizable=0;points=[];autosize=1;strokeColor=none;fillColor=none;" vertex="1" parent="1">
          <mxGeometry x="165" y="460" width="180" height="20" as="geometry" />
        </mxCell>
      </root>
    </mxGraphModel>
  </diagram>
</mxfile>
